<?xml version="1.0" encoding="utf-8"?><svg xml:space="preserve" viewBox="0 0 100 100" y="0" x="0" xmlns="http://www.w3.org/2000/svg" id="圖層_1" version="1.1" width="200px" height="200px" xmlns:xlink="http://www.w3.org/1999/xlink" style="width:100%;height:100%;background-size:initial;background-repeat-y:initial;background-repeat-x:initial;background-position-y:initial;background-position-x:initial;background-origin:initial;background-color:initial;background-clip:initial;background-attachment:initial;animation-play-state:paused" ><g class="ldl-scale" style="transform-origin:50% 50%;transform:rotate(0deg) scale(0.8, 0.8);animation-play-state:paused" ><circle stroke-miterlimit="10" stroke-width="3.5" stroke="#333" fill="#f5e6c8" r="6.375" cy="17.438" cx="50" style="stroke:rgb(255, 255, 255);fill:rgb(252, 0, 0);animation-play-state:paused" ></circle>
<circle stroke-miterlimit="10" stroke-width="3.5" stroke="#333" fill="#f5e6c8" r="9.375" cy="79.563" cx="50" style="stroke:rgb(255, 255, 255);fill:rgb(252, 0, 0);animation-play-state:paused" ></circle>
<path stroke-miterlimit="10" stroke-width="3.5" stroke="#333" fill="#f5e6c8" d="M81.657 73.019c.002-.117.004-.234-.002-.35a7.345 7.345 0 0 0-.107-.991c-.018-.104-.045-.205-.068-.308a7.011 7.011 0 0 0-.167-.645 7.845 7.845 0 0 0-.356-.909c-.05-.107-.1-.212-.155-.316a7.453 7.453 0 0 0-.332-.558c-.055-.085-.106-.173-.164-.255a7.341 7.341 0 0 0-1.276-1.382c-.077-.065-.16-.121-.239-.183-.12-.093-.236-.191-.362-.276-.952-.643-1.882-1.323-2.661-2.165a30.613 30.613 0 0 1-1.158-1.34l-.085-.11a30.718 30.718 0 0 1-1.009-1.328c-.117-.163-.226-.332-.339-.497a29.199 29.199 0 0 1-.666-1.007c-.122-.195-.238-.394-.356-.593a28.645 28.645 0 0 1-.884-1.61c-.17-.336-.33-.677-.485-1.02-.095-.21-.191-.419-.281-.631a26.142 26.142 0 0 1-.443-1.141c-.068-.185-.142-.368-.206-.555a25.04 25.04 0 0 1-.528-1.743c-.173-.663-.326-1.312-.45-1.93s-.22-1.206-.278-1.749L67.086 35.35v-.001l-.049-.452c-.771-7.17-5.899-12.894-12.573-14.695-.115-.032-.228-.068-.344-.097-.285-.071-.576-.125-.866-.182-.259-.051-.517-.103-.781-.141-.237-.034-.476-.056-.716-.081-.203-.021-.401-.055-.606-.069-.099-.007-.195 0-.294-.005-.284-.014-.571-.014-.858-.014-.287 0-.574 0-.858.014-.099.005-.195-.002-.294.005-.205.013-.403.048-.606.069-.24.025-.479.047-.716.081-.263.039-.522.091-.781.141-.291.056-.581.111-.866.182-.116.029-.229.066-.344.097-6.674 1.801-11.802 7.526-12.573 14.695l-.049.452v.001L31.4 49.426c-.058.542-.154 1.13-.278 1.749a34.9 34.9 0 0 1-.45 1.93 25.04 25.04 0 0 1-.528 1.743c-.064.187-.138.37-.206.555-.141.383-.285.765-.443 1.141-.089.212-.186.421-.281.631a23.485 23.485 0 0 1-.814 1.65 27.72 27.72 0 0 1-.555.98c-.117.198-.234.397-.356.593-.213.341-.438.675-.666 1.007-.113.165-.222.334-.339.497-.323.451-.66.894-1.009 1.328l-.085.11c-.372.458-.76.903-1.158 1.34-.779.843-1.709 1.522-2.661 2.165-.126.085-.241.183-.362.276-.08.061-.162.118-.239.183a7.374 7.374 0 0 0-1.276 1.382c-.059.083-.109.17-.164.255-.118.181-.23.366-.332.558-.055.104-.104.21-.155.316a7.203 7.203 0 0 0-.239.573 6.344 6.344 0 0 0-.284.981c-.022.103-.05.203-.068.308a7.345 7.345 0 0 0-.107.991c-.006.116-.004.233-.002.35.001.085-.005.167-.002.253.154 3.381 3.058 5.99 6.443 5.99h50.433c3.384 0 6.288-2.609 6.443-5.99.003-.085-.004-.167-.003-.252z" style="stroke:rgb(255, 255, 255);fill:rgb(252, 0, 0);animation-play-state:paused" ></path>
<metadata xmlns:d="https://loading.io/stock/" style="animation-play-state:paused" ><d:name style="animation-play-state:paused" >alarm</d:name>
<d:tags style="animation-play-state:paused" >alarm,bell,alert,notification,notify,signal,ring,chime,temporal</d:tags>
<d:license style="animation-play-state:paused" >by</d:license>
<d:slug style="animation-play-state:paused" >g1lc79</d:slug></metadata></g><!-- generated by https://loading.io/ --></svg>