<?xml version="1.0" encoding="utf-8"?><svg xml:space="preserve" viewBox="0 0 100 100" y="0" x="0" xmlns="http://www.w3.org/2000/svg" id="Layer_1" version="1.1" width="200px" height="200px" xmlns:xlink="http://www.w3.org/1999/xlink" style="width:100%;height:100%;background-size:initial;background-repeat-y:initial;background-repeat-x:initial;background-position-y:initial;background-position-x:initial;background-origin:initial;background-color:initial;background-clip:initial;background-attachment:initial;animation-play-state:paused" ><g class="ldl-scale" style="transform-origin:50% 50%;transform:rotate(0deg) scale(0.8, 0.8);animation-play-state:paused" ><circle stroke-miterlimit="10" stroke-width="3.5" stroke="#333" fill="#f4e6c8" r="17.925" cy="44.715" cx="50" style="stroke:rgb(51, 51, 51);fill:rgb(244, 230, 200);animation-play-state:paused" ></circle>
<path stroke-miterlimit="10" stroke-width="3.5" fill="#f4e6c8" stroke-linecap="round" stroke="#fff" d="M37.882 41.638c.044-.175.092-.348.144-.52" style="stroke:rgb(255, 255, 255);fill:rgb(244, 230, 200);animation-play-state:paused" ></path>
<path stroke-width="3.5" stroke="#000" stroke-miterlimit="10" stroke-linejoin="round" stroke-linecap="round" opacity=".2" d="M59.132 29.311c.936 4.873.731 10.52-.848 16.262-1.976 7.188-5.725 13.149-10.177 16.966.623.065 1.254.102 1.894.102 9.9 0 17.925-8.025 17.925-17.925-.001-6.561-3.536-12.281-8.794-15.405z" style="animation-play-state:paused" ></path>
<path stroke-miterlimit="10" stroke-width="3.5" fill="#f4e6c8" stroke-linecap="round" stroke="#f47e5f" d="M45 63V48.847c0-1.147 1.327-1.785 2.223-1.068l2.222 1.777c.325.26.786.26 1.111 0l2.222-1.777C53.673 47.062 55 47.7 55 48.847V63" style="stroke:rgb(244, 126, 95);fill:rgb(244, 230, 200);animation-play-state:paused" ></path>
<path stroke-miterlimit="10" stroke-width="3.5" stroke="#333" fill="#e0e0e0" d="M50 90h0a4.717 4.717 0 0 1-4.717-4.717v-3.774A4.717 4.717 0 0 1 50 76.792h0a4.717 4.717 0 0 1 4.717 4.717v3.774A4.717 4.717 0 0 1 50 90z" style="stroke:rgb(51, 51, 51);fill:rgb(224, 224, 224);animation-play-state:paused" ></path>
<path stroke-miterlimit="10" stroke-width="3.5" fill="#f4e6c8" stroke-linecap="round" stroke="#fff" d="M40.463 36.635a12.498 12.498 0 0 1 6.518-4.052" style="stroke:rgb(255, 255, 255);fill:rgb(244, 230, 200);animation-play-state:paused" ></path>
<path stroke-miterlimit="10" stroke-width="3.5" stroke="#333" fill="#e0e0e0" d="M58.019 66.414H41.981a4.245 4.245 0 0 1-4.245-4.245v0a4.245 4.245 0 0 1 4.245-4.245h16.038a4.245 4.245 0 0 1 4.245 4.245v0a4.244 4.244 0 0 1-4.245 4.245z" style="stroke:rgb(51, 51, 51);fill:rgb(224, 224, 224);animation-play-state:paused" ></path>
<path stroke-miterlimit="10" stroke-width="3.5" stroke="#333" fill="#e0e0e0" d="M58.019 74.905H41.981a4.245 4.245 0 0 1-4.245-4.245v0a4.245 4.245 0 0 1 4.245-4.245h16.038a4.245 4.245 0 0 1 4.245 4.245v0a4.244 4.244 0 0 1-4.245 4.245z" style="stroke:rgb(51, 51, 51);fill:rgb(224, 224, 224);animation-play-state:paused" ></path>
<path stroke-miterlimit="10" stroke-width="3.5" stroke="#333" fill="#e0e0e0" d="M58.019 83.396H41.981a4.245 4.245 0 0 1-4.245-4.245v0a4.245 4.245 0 0 1 4.245-4.245h16.038a4.245 4.245 0 0 1 4.245 4.245v0a4.244 4.244 0 0 1-4.245 4.245z" style="stroke:rgb(51, 51, 51);fill:rgb(224, 224, 224);animation-play-state:paused" ></path>
<path stroke-miterlimit="10" stroke="#000" stroke-linejoin="round" stroke-width="3.5" opacity=".2" d="M62.265 70.66a4.245 4.245 0 0 0-4.245-4.245 4.245 4.245 0 1 0 0-8.49h-4a4.245 4.245 0 1 1 0 8.49 4.245 4.245 0 1 1 0 8.49 4.245 4.245 0 1 1 0 8.49h-3.302v1.887a4.709 4.709 0 0 1-2.717 4.258c.609.287 1.282.46 2 .46a4.717 4.717 0 0 0 4.717-4.717v-1.887h3.302a4.245 4.245 0 1 0 0-8.49 4.247 4.247 0 0 0 4.245-4.246z" style="animation-play-state:paused" ></path>
<path d="M50 19.877V10" stroke-miterlimit="10" stroke-width="3.5" stroke-linecap="round" stroke="#333" fill="none" style="stroke:rgb(51, 51, 51);animation-play-state:paused" ></path>
<path d="M62.346 23.185l4.938-8.554" stroke-miterlimit="10" stroke-width="3.5" stroke-linecap="round" stroke="#333" fill="none" style="stroke:rgb(51, 51, 51);animation-play-state:paused" ></path>
<path d="M71.383 32.222l8.554-4.938" stroke-miterlimit="10" stroke-width="3.5" stroke-linecap="round" stroke="#333" fill="none" style="stroke:rgb(51, 51, 51);animation-play-state:paused" ></path>
<path d="M74.691 44.568h9.877" stroke-miterlimit="10" stroke-width="3.5" stroke-linecap="round" stroke="#333" fill="none" style="stroke:rgb(51, 51, 51);animation-play-state:paused" ></path>
<path d="M71.383 56.913l8.554 4.939" stroke-miterlimit="10" stroke-width="3.5" stroke-linecap="round" stroke="#333" fill="none" style="stroke:rgb(51, 51, 51);animation-play-state:paused" ></path>
<path d="M37.654 23.185l-4.938-8.554" stroke-miterlimit="10" stroke-width="3.5" stroke-linecap="round" stroke="#333" fill="none" style="stroke:rgb(51, 51, 51);animation-play-state:paused" ></path>
<path d="M28.617 32.222l-8.554-4.938" stroke-miterlimit="10" stroke-width="3.5" stroke-linecap="round" stroke="#333" fill="none" style="stroke:rgb(51, 51, 51);animation-play-state:paused" ></path>
<path d="M25.309 44.568h-9.877" stroke-miterlimit="10" stroke-width="3.5" stroke-linecap="round" stroke="#333" fill="none" style="stroke:rgb(51, 51, 51);animation-play-state:paused" ></path>
<path d="M28.617 56.913l-8.554 4.939" stroke-miterlimit="10" stroke-width="3.5" stroke-linecap="round" stroke="#333" fill="none" style="stroke:rgb(51, 51, 51);animation-play-state:paused" ></path>
<metadata xmlns:d="https://loading.io/stock/" style="animation-play-state:paused" ><d:name style="animation-play-state:paused" >idea</d:name>


<d:tags style="animation-play-state:paused" >idea,creativity,plan,design,inspiration,smart,light bulb,eureka,discover,brainstorm</d:tags>


<d:license style="animation-play-state:paused" >by</d:license>


<d:slug style="animation-play-state:paused" >l3jjio</d:slug></metadata></g><!-- generated by https://loading.io/ --></svg>