<?xml version="1.0" encoding="utf-8"?><svg viewBox="0 0 100 100" xmlns="http://www.w3.org/2000/svg" width="200px" height="200px" xmlns:xlink="http://www.w3.org/1999/xlink" style="width:100%;height:100%;background-size:initial;background-repeat-y:initial;background-repeat-x:initial;background-position-y:initial;background-position-x:initial;background-origin:initial;background-color:initial;background-clip:initial;background-attachment:initial;animation-play-state:paused" ><g class="ldl-scale" style="transform-origin:50% 50%;transform:rotate(0deg) scale(0.8, 0.8);animation-play-state:paused" ><g style="animation-play-state:paused" ><path fill="#c33736" d="M10.135 14.507c8.906.577 17.852 2.123 26.404 5.219 8.531 3.078 16.668 7.766 23.383 14.138 6.757 6.319 12.106 14.078 16.047 22.387 3.96 8.322 6.593 17.165 8.395 26.093a4.502 4.502 0 1 1-8.868 1.547l-.008-.053c-1.216-8.43-3.2-16.735-6.388-24.536-3.176-7.793-7.607-15.059-13.408-21.139-5.76-6.124-12.965-10.86-20.822-14.208-7.868-3.362-16.371-5.351-25.005-6.398l-.014-.002a1.532 1.532 0 0 1-1.336-1.704 1.537 1.537 0 0 1 1.62-1.344z" style="fill:rgb(0, 96, 212);animation-play-state:paused" ></path></g>
<g style="animation-play-state:paused" ><path fill="#c33736" d="M77.347 79.864L89.72 68.398a1.634 1.634 0 0 1 2.562 1.952l-7.776 14.97a4.567 4.567 0 1 1-7.159-5.456z" style="fill:rgb(0, 96, 212);animation-play-state:paused" ></path></g>
<g style="animation-play-state:paused" ><path fill="#c33736" d="M76.895 87.321L64.448 75.935a1.635 1.635 0 0 1 1.734-2.713l15.559 6.516a4.568 4.568 0 1 1-4.846 7.583z" style="fill:rgb(0, 96, 212);animation-play-state:paused" ></path></g>
<metadata xmlns:d="https://loading.io/stock/" style="animation-play-state:paused" ><d:name style="animation-play-state:paused" >trend</d:name>


<d:tags style="animation-play-state:paused" >trend,revenue,profit,loss,earning,income,drop,lower,down,arrow</d:tags>


<d:license style="animation-play-state:paused" >by</d:license>


<d:slug style="animation-play-state:paused" >njnc8y</d:slug></metadata></g><!-- generated by https://loading.io/ --></svg>