<?xml version="1.0" encoding="utf-8"?><svg xml:space="preserve" viewBox="0 0 100 100" y="0" x="0" xmlns="http://www.w3.org/2000/svg" id="Layer_1" version="1.1" width="200px" height="200px" xmlns:xlink="http://www.w3.org/1999/xlink" style="width:100%;height:100%;background-size:initial;background-repeat-y:initial;background-repeat-x:initial;background-position-y:initial;background-position-x:initial;background-origin:initial;background-color:initial;background-clip:initial;background-attachment:initial;animation-play-state:paused" ><g class="ldl-scale" style="transform-origin:50% 50%;transform:rotate(0deg) scale(0.8, 0.8);animation-play-state:paused" ><path stroke="#333" fill="#e0e0e0" stroke-miterlimit="10" stroke-width="3.5" d="M30.474 20.457c11.179-8.735 30.487-10.268 37.75 4.339 3.393 6.825 2.886 15.186-.303 22.109-3.19 6.922-8.822 12.501-15.182 16.701-1.053.695-2.166 1.394-2.827 2.469s-.699 2.656.277 3.456c.375.308.847.464 1.294.654 3.818 1.624 5.961 6.397 4.638 10.33-3.045 9.046-16.481 5.067-22.756 2.728-7.205-2.685-14.112-6.778-18.711-12.94-12.27-16.439 2.081-39.11 15.82-49.846z" style="stroke:rgb(51, 51, 51);fill:rgb(224, 224, 224);animation-play-state:paused" ></path>
<path stroke-miterlimit="10" stroke-width="3.5" stroke="#fff" fill="#e0e0e0" stroke-linecap="round" d="M21.885 68.951a29.668 29.668 0 0 1-2.232-2.65 23.716 23.716 0 0 1-2.324-3.8" style="stroke:rgb(255, 255, 255);fill:rgb(224, 224, 224);animation-play-state:paused" ></path>
<path stroke-miterlimit="10" stroke-width="3.5" stroke="#fff" fill="#e0e0e0" stroke-linecap="round" d="M27.511 73.644a39.738 39.738 0 0 1-1.609-1.006" style="stroke:rgb(255, 255, 255);fill:rgb(224, 224, 224);animation-play-state:paused" ></path>
<path stroke-miterlimit="10" stroke-width="3.5" stroke="#000" opacity=".2" d="M57.354 15.117C50.721 38.828 42.527 61.479 32.536 82.91c.276.108.549.228.827.331 6.276 2.339 19.711 6.318 22.756-2.728 1.324-3.932-.819-8.706-4.638-10.33-.446-.19-.919-.346-1.294-.654-.976-.8-.938-2.381-.277-3.456.661-1.075 1.774-1.774 2.827-2.469 6.36-4.2 11.992-9.779 15.182-16.701s3.697-15.284.303-22.109c-2.482-4.994-6.375-8.099-10.868-9.677z" style="animation-play-state:paused" ></path>
<circle r="5.239" stroke-miterlimit="10" fill="#ea7c60" stroke-width="3.5" stroke="#333" cy="27.436" cx="49.127" transform="rotate(-4.863 49.127 27.433)" style="stroke:rgb(51, 51, 51);fill:rgb(234, 124, 96);animation-play-state:paused" ></circle>
<circle r="5.239" stroke-miterlimit="10" fill="#a8b980" stroke-width="3.5" stroke="#333" cy="38.265" cx="35.151" transform="rotate(-4.863 35.152 38.264)" style="stroke:rgb(51, 51, 51);fill:rgb(168, 185, 128);animation-play-state:paused" ></circle>
<circle r="5.239" stroke-width="3.5" stroke="#333" stroke-miterlimit="10" fill="#76a0b7" cy="52.352" cx="24.081" transform="rotate(-4.863 24.082 52.35)" style="stroke:rgb(51, 51, 51);fill:rgb(118, 160, 183);animation-play-state:paused" ></circle>
<g style="animation-play-state:paused" ><path stroke-miterlimit="10" fill="#f0af6b" stroke="#333" stroke-width="3.5" d="M55.489 60.246l-6.351-6.351a2.421 2.421 0 0 1 0-3.425l32.558-30.981c.946-.946 2.355-1.069 3.148-.276l5.327 5.327c.793.793.67 2.203-.276 3.148L58.914 60.246a2.421 2.421 0 0 1-3.425 0z" style="stroke:rgb(51, 51, 51);fill:rgb(240, 175, 107);animation-play-state:paused" ></path>
<path stroke-width="3.5" stroke-linejoin="round" stroke="#333" fill="#65503a" stroke-miterlimit="10" d="M52.299 68.787c-4.148 4.716-14.356 3.284-14.761 8.072-6.016-4.339-3.355-11.56 1.665-17.519 4.44-5.27 8.514-5.624 12.13-3.015 3.616 2.609 5.517 7.287.966 12.462z" style="stroke:rgb(51, 51, 51);fill:rgb(101, 80, 58);animation-play-state:paused" ></path>
<path stroke-miterlimit="10" stroke-width="3.5" stroke="#000" stroke-linejoin="round" opacity=".2" d="M52.299 68.787c4.551-5.175 2.65-9.853-.966-12.462a9.76 9.76 0 0 0-1.303-.795c1.226 2.607 1.109 5.941-1.429 9.811-2.961 4.516-10.221 5.752-13.816 8.282.551 1.186 1.432 2.283 2.753 3.235.404-4.787 10.613-3.355 14.761-8.071z" style="animation-play-state:paused" ></path>
<path d="M82.568 26.816L64.662 44.722" stroke-miterlimit="10" stroke-linecap="round" stroke-width="3.5" stroke="#333" stroke-linejoin="round" fill="none" style="stroke:rgb(51, 51, 51);animation-play-state:paused" ></path>
<path stroke-miterlimit="10" stroke-width="3.5" stroke="#333" fill="#f3e4c7" d="M55.609 44.313l-6.471 6.158a2.421 2.421 0 0 0 0 3.425l6.351 6.351a2.421 2.421 0 0 0 3.425 0l6.158-6.471-9.463-9.463z" style="stroke:rgb(51, 51, 51);fill:rgb(243, 228, 199);animation-play-state:paused" ></path>
<path stroke-miterlimit="10" stroke-width="3.5" stroke="#000" stroke-linejoin="round" opacity=".2" d="M90.171 24.54l-1.351-1.35-35.194 35.193 1.863 1.863a2.421 2.421 0 0 0 3.425 0l30.981-32.558c.945-.945 1.069-2.355.276-3.148z" style="animation-play-state:paused" ></path></g>
<metadata xmlns:d="https://loading.io/stock/" style="animation-play-state:paused" ><d:name style="animation-play-state:paused" >illustrator</d:name>


<d:tags style="animation-play-state:paused" >illustrator,sketch,draw,paint,art,artwork,visual design,aesthetic,artist,comic,illustration</d:tags>


<d:license style="animation-play-state:paused" >by</d:license>


<d:slug style="animation-play-state:paused" >1ln9yz</d:slug></metadata></g><!-- generated by https://loading.io/ --></svg>