<?xml version="1.0" encoding="utf-8"?><svg xml:space="preserve" viewBox="0 0 100 100" y="0" x="0" xmlns="http://www.w3.org/2000/svg" id="圖層_1" version="1.1" width="200px" height="200px" xmlns:xlink="http://www.w3.org/1999/xlink" style="width:100%;height:100%;background-size:initial;background-repeat-y:initial;background-repeat-x:initial;background-position-y:initial;background-position-x:initial;background-origin:initial;background-color:initial;background-clip:initial;background-attachment:initial;animation-play-state:paused" ><g class="ldl-scale" style="transform-origin:50% 50%;transform:rotate(0deg) scale(0.8, 0.8);animation-play-state:paused" ><path fill="#abbd81" d="M72.903 14.078H15.427c-4.247 0-7.927 3.078-7.927 7.326v29.952c0 4.247 3.679 8.055 7.927 8.055h6.24v14.091c6.611-2.188 11.916-7.48 13.731-14.091h37.505c4.247 0 7.319-3.808 7.319-8.055V21.403c0-4.247-3.072-7.325-7.319-7.325z" style="fill:rgb(10, 10, 10);animation-play-state:paused" ></path>
<path fill="#849b87" d="M85.889 26.057v25.576c0 6.863-6.067 12.434-12.986 12.434H38.902c-1.068 2.833-2.531 4.585-4.335 6.619.7.213 1.442-.008 2.212-.008h28.297c1.815 7.556 6.647 13.057 14.203 15.244V70.678h3.066c5.74 0 10.156-3.966 10.156-9.705v-27.15c-.001-4.132-2.834-7.504-6.612-7.766z" style="fill:rgb(10, 10, 10);animation-play-state:paused" ></path>
<g style="animation-play-state:paused" ><circle fill="#f5e6c8" r="4.5" cy="37.5" cx="23.2" style="fill:rgb(255, 255, 255);animation-play-state:paused" ></circle>
<circle fill="#fcedce" r="4.5" cy="37.5" cx="43" style="fill:rgb(253, 250, 250);animation-play-state:paused" ></circle>
<circle fill="#fff2d9" r="4.5" cy="37.5" cx="62.8" style="fill:rgb(244, 244, 244);animation-play-state:paused" ></circle></g>
<metadata xmlns:d="https://loading.io/stock/" style="animation-play-state:paused" ><d:name style="animation-play-state:paused" >discussion</d:name>
<d:tags style="animation-play-state:paused" >sending,typing,thread,interview,talk,chitchat,chat,discussion,conversation</d:tags>
<d:license style="animation-play-state:paused" >pro</d:license>
<d:slug style="animation-play-state:paused" >ctzjdw</d:slug></metadata></g><!-- generated by https://loading.io/ --></svg>