<?xml version="1.0" encoding="utf-8"?><svg xml:space="preserve" viewBox="0 0 100 100" y="0" x="0" xmlns="http://www.w3.org/2000/svg" id="圖層_1" version="1.1" width="200px" height="200px" xmlns:xlink="http://www.w3.org/1999/xlink" style="width:100%;height:100%;background-size:initial;background-repeat-y:initial;background-repeat-x:initial;background-position-y:initial;background-position-x:initial;background-origin:initial;background-color:initial;background-clip:initial;background-attachment:initial;animation-play-state:paused" ><g class="ldl-scale" style="transform-origin:50% 50%;transform:rotate(0deg) scale(0.8, 0.8);animation-play-state:paused" ><path fill="#333" d="M80 50c0-.934-.049-1.857-.132-2.77l9.657-3.4a39.7 39.7 0 0 0-3.929-12.069l-9.801 2.923a30.106 30.106 0 0 0-3.261-4.478l5.813-8.425a40.116 40.116 0 0 0-10.269-7.46l-6.209 8.123a29.774 29.774 0 0 0-5.273-1.708l-.249-10.23C54.279 10.177 52.16 10 50 10s-4.279.177-6.346.506l-.249 10.23c-1.826.41-3.59.982-5.273 1.708l-6.209-8.123a40.11 40.11 0 0 0-10.269 7.46l5.813 8.425a30.035 30.035 0 0 0-3.261 4.478l-9.801-2.923a39.7 39.7 0 0 0-3.929 12.069l9.657 3.4C20.049 48.143 20 49.066 20 50s.049 1.857.132 2.77l-9.657 3.4a39.7 39.7 0 0 0 3.929 12.069l9.801-2.923a30.106 30.106 0 0 0 3.261 4.478l-5.813 8.425a40.116 40.116 0 0 0 10.269 7.46l6.209-8.123a29.774 29.774 0 0 0 5.273 1.708l.249 10.23C45.721 89.823 47.84 90 50 90s4.279-.177 6.346-.506l.249-10.23c1.826-.41 3.59-.982 5.273-1.708l6.209 8.123a40.11 40.11 0 0 0 10.269-7.46l-5.813-8.425a30.035 30.035 0 0 0 3.261-4.478l9.801 2.923a39.7 39.7 0 0 0 3.929-12.069l-9.657-3.4c.084-.913.133-1.836.133-2.77zM50 65c-8.284 0-15-6.716-15-15 0-8.284 6.716-15 15-15s15 6.716 15 15c0 8.284-6.716 15-15 15z" style="fill:rgb(255, 255, 255);animation-play-state:paused" ></path>
<metadata xmlns:d="https://loading.io/stock/" style="animation-play-state:paused" ><d:name style="animation-play-state:paused" >gear</d:name>
<d:tags style="animation-play-state:paused" >config,engineer,setup,tool,kit,edit,gear,gear</d:tags>
<d:license style="animation-play-state:paused" >by</d:license>
<d:slug style="animation-play-state:paused" >xpnb2d</d:slug></metadata></g><!-- generated by https://loading.io/ --></svg>