<?xml version="1.0" encoding="utf-8"?><svg xml:space="preserve" viewBox="0 0 100 100" y="0" x="0" xmlns="http://www.w3.org/2000/svg" id="圖層_1" version="1.1" width="200px" height="200px" xmlns:xlink="http://www.w3.org/1999/xlink" style="width:100%;height:100%;background-size:initial;background-repeat-y:initial;background-repeat-x:initial;background-position-y:initial;background-position-x:initial;background-origin:initial;background-color:initial;background-clip:initial;background-attachment:initial;animation-play-state:paused" ><g class="ldl-scale" style="transform-origin:50% 50%;transform:rotate(0deg) scale(0.8, 0.8);animation-play-state:paused" ><path d="M70.9 62.3H29.1l-6.2 26.6 22.5 3.6 3.5-17.3h2.2l3.5 17.3 22.5-3.6z" stroke-miterlimit="10" stroke-width="3" stroke="#333" fill="#77a4bd" stroke-linejoin="round" stroke-linecap="round" style="stroke:rgb(51, 51, 51);fill:rgb(119, 164, 189);animation-play-state:paused" ></path>
<g style="animation-play-state:paused" ><path stroke-linejoin="round" stroke-linecap="round" fill="#fff" stroke-miterlimit="10" stroke-width="3" stroke="#333" d="M29.1 15l3.2-6.3 4.9-1.2h25.6l4.9 1.2 3.2 6.3c0 4.3-41.8 4.3-41.8 0z" style="stroke:rgb(51, 51, 51);fill:rgb(255, 255, 255);animation-play-state:paused" ></path>
<path stroke-miterlimit="10" stroke-width="3" stroke="#333" fill="#666" stroke-linejoin="round" stroke-linecap="round" d="M65.7 11.3c-10.5 5.4-20.9 5.4-31.4 0 0 24.5 31.4 24.5 31.4 0z" style="stroke:rgb(51, 51, 51);fill:rgb(102, 102, 102);animation-play-state:paused" ></path>
<path stroke-miterlimit="10" stroke-linejoin="round" stroke-linecap="round" stroke-width="3" stroke="#333" fill="#f8b26a" d="M70.9 15.7c-1.5-.6-3.1-1.1-4.7-1.5l-3.6-.9c0 19.7-25.3 19.7-25.3 0-1.2.2-2.4.5-3.6.9-1.6.4-3.2.9-4.7 1.5-6 2.2-11.5 5.5-16.6 9.9L19.1 39l10-4.9v28.2H71V34.1L81 39l6.6-13.4c-5.2-4.4-10.7-7.7-16.7-9.9z" style="stroke:rgb(51, 51, 51);fill:rgb(248, 178, 106);animation-play-state:paused" ></path>
<path d="M29.1 15l3.2-6.3 4.9-1.2L50 27.4l-10.5 7.8z" stroke-linejoin="round" stroke-linecap="round" fill="#fff" stroke-miterlimit="10" stroke-width="3" stroke="#333" style="stroke:rgb(51, 51, 51);fill:rgb(255, 255, 255);animation-play-state:paused" ></path>
<path d="M70.9 15l-3.2-6.3-4.9-1.2L50 27.4l10.5 7.8z" stroke-linejoin="round" stroke-linecap="round" fill="#fff" stroke-miterlimit="10" stroke-width="3" stroke="#333" style="stroke:rgb(51, 51, 51);fill:rgb(255, 255, 255);animation-play-state:paused" ></path></g>
<metadata xmlns:d="https://loading.io/stock/" style="animation-play-state:paused" ><d:name style="animation-play-state:paused" >clothes</d:name>


<d:tags style="animation-play-state:paused" >clothes,short pants,t-shirt</d:tags>


<d:license style="animation-play-state:paused" >by</d:license>


<d:slug style="animation-play-state:paused" >jzph2f</d:slug></metadata></g><!-- generated by https://loading.io/ --></svg>