<?xml version="1.0" encoding="utf-8"?><svg xml:space="preserve" viewBox="0 0 100 100" y="0" x="0" xmlns="http://www.w3.org/2000/svg" id="圖層_1" version="1.1" width="200px" height="200px" xmlns:xlink="http://www.w3.org/1999/xlink" style="width:100%;height:100%;background-size:initial;background-repeat-y:initial;background-repeat-x:initial;background-position-y:initial;background-position-x:initial;background-origin:initial;background-color:initial;background-clip:initial;background-attachment:initial;animation-play-state:paused" ><g class="ldl-scale" style="transform-origin:50% 50%;transform:rotate(0deg) scale(0.8, 0.8);animation-play-state:paused" ><linearGradient y2="45.354" x2="50" y1="78.411" x1="50" gradientUnits="userSpaceOnUse" id="SVGID_1_" style="animation-play-state:paused" ><stop stop-color="#849b87" offset="0" style="stop-color:rgb(132, 155, 135);animation-play-state:paused" ></stop>
<stop stop-color="#f8b26a" offset="1" style="stop-color:rgb(248, 178, 106);animation-play-state:paused" ></stop></linearGradient>
<path stroke-miterlimit="10" stroke-linecap="round" stroke-width="3.5" stroke="#333" fill="url(#SVGID_1_)" d="M88.7 80H11.3c-2.1 0-3.8-1.7-3.8-3.8V23.8c0-2.1 1.7-3.8 3.8-3.8h77.4c2.1 0 3.8 1.7 3.8 3.8v52.4c0 2.1-1.7 3.8-3.8 3.8z" style="stroke:rgb(51, 51, 51);animation-play-state:paused" ></path>
<path d="M7.5 45.4h85" stroke-miterlimit="10" stroke-linecap="round" stroke-width="3.5" stroke="#333" fill="none" style="stroke:rgb(51, 51, 51);animation-play-state:paused" ></path>
<linearGradient y2="20.567" x2="50" y1="37.87" x1="50" gradientUnits="userSpaceOnUse" id="SVGID_2_" style="animation-play-state:paused" ><stop stop-color="#f47e60" offset="0" style="stop-color:rgb(244, 126, 96);animation-play-state:paused" ></stop>
<stop stop-color="#e15b64" offset="1" style="stop-color:rgb(225, 91, 100);animation-play-state:paused" ></stop></linearGradient>
<path stroke-miterlimit="10" stroke-linecap="round" stroke-width="3.5" stroke="#333" fill="url(#SVGID_2_)" d="M92.5 45.4h-85V23.8c0-2.1 1.7-3.8 3.8-3.8h77.4c2.1 0 3.8 1.7 3.8 3.8v21.6z" style="stroke:rgb(51, 51, 51);animation-play-state:paused" ></path>
<linearGradient y2="66.535" x2="49.075" y1="50.781" x1="49.075" gradientUnits="userSpaceOnUse" id="SVGID_3_" style="animation-play-state:paused" ><stop stop-color="#a0c8d7" offset="0" style="stop-color:rgb(160, 200, 215);animation-play-state:paused" ></stop>
<stop stop-color="#77a4bd" offset="1" style="stop-color:rgb(119, 164, 189);animation-play-state:paused" ></stop></linearGradient>
<path stroke-miterlimit="10" stroke-width="3.5" stroke="#333" stroke-linecap="round" fill="url(#SVGID_3_)" d="M71.3 67.5c.2-2.9-2-5.5-4.5-7s-5.4-2.4-7.7-4.2C57.4 55 56 53.2 56 51.1c0-2.7 1.4-4.1 3.5-5.8h-8.1c-2.7 1.1-3.7 1.5-5.7 3.6s-3 5.5-1.5 8c.7 1.1 1.8 2 2 3.3.2 1.6-1 2.9-2.2 4-5.7 5.5-11.4 10.4-17.1 15.8h38.6c1.5-2.7 2.7-5.7 4.2-8.4.7-1.3 1.5-2.7 1.6-4.1z" style="stroke:rgb(51, 51, 51);animation-play-state:paused" ></path>
<path stroke-miterlimit="10" stroke-linecap="round" stroke-width="3.5" stroke="#333" fill="#f5e6c8" d="M41.9 45.4c.8-1.4 1.2-3.1 1.2-4.8 0-5.7-4.6-10.3-10.3-10.3s-10.3 4.6-10.3 10.3c0 1.8.4 3.4 1.2 4.8h18.2z" style="stroke:rgb(51, 51, 51);fill:rgb(245, 230, 200);animation-play-state:paused" ></path>
<metadata xmlns:d="https://loading.io/stock/" style="animation-play-state:paused" ><d:name style="animation-play-state:paused" >image</d:name>
<d:tags style="animation-play-state:paused" >image,photo,picture,figure,gif,jpg,png,webp,graphics,scene,postcard</d:tags>
<d:license style="animation-play-state:paused" >by</d:license>
<d:slug style="animation-play-state:paused" >19hwsl</d:slug></metadata></g><!-- generated by https://loading.io/ --></svg>