<?xml version="1.0" encoding="utf-8"?><svg xml:space="preserve" viewBox="0 0 100 100" y="0" x="0" xmlns="http://www.w3.org/2000/svg" id="圖層_1" version="1.1" width="200px" height="200px" xmlns:xlink="http://www.w3.org/1999/xlink" style="width:100%;height:100%;background-size:initial;background-repeat-y:initial;background-repeat-x:initial;background-position-y:initial;background-position-x:initial;background-origin:initial;background-color:initial;background-clip:initial;background-attachment:initial;animation-play-state:paused" ><g class="ldl-scale" style="transform-origin:50% 50%;transform:rotate(0deg) scale(0.8, 0.8);animation-play-state:paused" ><path stroke-miterlimit="10" stroke-width="3" stroke="#333" fill="#f5e6c8" d="M70.563 87.167H29.437a5.058 5.058 0 0 1-5.058-5.058V17.891a5.058 5.058 0 0 1 5.058-5.058h41.127a5.058 5.058 0 0 1 5.058 5.058v64.217a5.06 5.06 0 0 1-5.059 5.059z" style="stroke:rgb(51, 51, 51);fill:rgb(245, 230, 200);animation-play-state:paused" ></path>
<g style="animation-play-state:paused" ><path fill="#333" d="M36 20.667a2.518 2.518 0 0 1-2.518-2.518v-7.964a2.518 2.518 0 1 1 5.036 0v7.964A2.518 2.518 0 0 1 36 20.667z" style="fill:rgb(51, 51, 51);animation-play-state:paused" ></path>
<path fill="#333" d="M45.333 20.667a2.518 2.518 0 0 1-2.518-2.518v-7.964a2.518 2.518 0 1 1 5.036 0v7.964a2.518 2.518 0 0 1-2.518 2.518z" style="fill:rgb(51, 51, 51);animation-play-state:paused" ></path>
<path fill="#333" d="M54.667 20.667a2.518 2.518 0 0 1-2.518-2.518v-7.964a2.518 2.518 0 1 1 5.036 0v7.964a2.519 2.519 0 0 1-2.518 2.518z" style="fill:rgb(51, 51, 51);animation-play-state:paused" ></path>
<path fill="#333" d="M64 20.667a2.518 2.518 0 0 1-2.518-2.518v-7.964a2.518 2.518 0 1 1 5.036 0v7.964A2.518 2.518 0 0 1 64 20.667z" style="fill:rgb(51, 51, 51);animation-play-state:paused" ></path></g>
<path d="M36 38h28" stroke-miterlimit="10" stroke-width="3" stroke="#333" fill="none" style="stroke:rgb(51, 51, 51);animation-play-state:paused" ></path>
<path d="M36 45h28" stroke-miterlimit="10" stroke-width="3" stroke="#333" fill="none" style="stroke:rgb(51, 51, 51);animation-play-state:paused" ></path>
<path d="M36 52h18" stroke-miterlimit="10" stroke-width="3" stroke="#333" fill="none" style="stroke:rgb(51, 51, 51);animation-play-state:paused" ></path>
<metadata xmlns:d="https://loading.io/stock/" style="animation-play-state:paused" ><d:name style="animation-play-state:paused" >notebook</d:name>
<d:tags style="animation-play-state:paused" >textbook,memo,read,paper,binder,notebook,books</d:tags>
<d:license style="animation-play-state:paused" >by</d:license>
<d:slug style="animation-play-state:paused" >4uc34t</d:slug></metadata></g><!-- generated by https://loading.io/ --></svg>