<?xml version="1.0" encoding="utf-8"?><svg viewBox="0 0 100 100" xmlns="http://www.w3.org/2000/svg" width="200px" height="200px" xmlns:xlink="http://www.w3.org/1999/xlink" style="width:100%;height:100%;background-size:initial;background-repeat-y:initial;background-repeat-x:initial;background-position-y:initial;background-position-x:initial;background-origin:initial;background-color:initial;background-clip:initial;background-attachment:initial;animation-play-state:paused" ><g class="ldl-scale" style="transform-origin:50% 50%;transform:rotate(0deg) scale(0.8, 0.8);animation-play-state:paused" ><path fill="#a0c8d7" d="M47.962 10.051c-20.276 1.006-36.785 17.429-37.9 37.699-.482 8.762 1.87 16.943 6.206 23.736l-4.889 14.443c-.564 1.667 1.027 3.258 2.693 2.693l14.443-4.889c6.793 4.336 14.974 6.688 23.736 6.206 20.27-1.115 36.693-17.624 37.699-37.9 1.175-23.701-18.288-43.165-41.988-41.988z" style="fill:rgb(255, 255, 255);animation-play-state:paused" ></path>
<g style="animation-play-state:paused" ><path fill="#fff" d="M54.435 71.5h-8.87A1.565 1.565 0 0 1 44 69.935v-20.87c0-.864.701-1.565 1.565-1.565h8.87c.864 0 1.565.701 1.565 1.565v20.87c0 .864-.701 1.565-1.565 1.565z" style="fill:rgb(0, 96, 212);animation-play-state:paused" ></path>
<path fill="#fff" d="M50 28a7.25 7.25 0 0 0 0 14.5A7.25 7.25 0 0 0 50 28z" style="fill:rgb(0, 96, 212);animation-play-state:paused" ></path></g>
<metadata xmlns:d="https://loading.io/stock/" style="animation-play-state:paused" ><d:name style="animation-play-state:paused" >message</d:name>


<d:tags style="animation-play-state:paused" >message,sns,msg,texting,information,communication,mention,hint,notify</d:tags>


<d:license style="animation-play-state:paused" >by</d:license>


<d:slug style="animation-play-state:paused" >gq7x58</d:slug></metadata></g><!-- generated by https://loading.io/ --></svg>