<?xml version="1.0" encoding="utf-8"?><svg xml:space="preserve" viewBox="0 0 100 100" y="0px" x="0px" xmlns:xlink="http://www.w3.org/1999/xlink" xmlns="http://www.w3.org/2000/svg" id="圖層_1" version="1.1" width="200px" height="200px" style="width:100%;height:100%;background-size:initial;background-repeat-y:initial;background-repeat-x:initial;background-position-y:initial;background-position-x:initial;background-origin:initial;background-color:initial;background-clip:initial;background-attachment:initial;animation-play-state:paused" ><g class="ldl-scale" style="transform-origin:50% 50%;transform:rotate(0deg) scale(0.8, 0.8);animation-play-state:paused" ><g style="animation-play-state:paused" ><line y2="66.99" x2="59.22" y1="74.7" x1="40.61" stroke-miterlimit="10" stroke-linecap="round" stroke-width="3.5" stroke="#000000" fill="#FDE9A8" style="fill:rgb(253, 233, 168);animation-play-state:paused" ></line>
<polygon points="40.59,40.02 41.51,44.94 38.02,48.52 39.87,53.17 37.15,57.36 39.88,61.55 38.02,66.2 41.52,69.78 40.61,74.7 59.22,66.99 55.97,65.4 57.78,62.27 54.91,60.07 57.29,57.36 54.91,54.65 57.77,52.45 55.96,49.32 59.2,47.73" stroke-miterlimit="10" stroke-linejoin="round" stroke-linecap="round" stroke-width="3.5" stroke="#000000" fill="#FDE9A8" style="fill:rgb(253, 233, 168);animation-play-state:paused" ></polygon>
<line y2="51.14" x2="51.19" y1="49.83" x1="44.6" stroke-miterlimit="10" stroke-linecap="round" stroke-width="3.5" stroke="#000000" fill="#FDE9A8" style="fill:rgb(253, 233, 168);animation-play-state:paused" ></line>
<line y2="57.36" x2="50.58" y1="57.36" x1="43.87" stroke-miterlimit="10" stroke-linecap="round" stroke-width="3.5" stroke="#000000" fill="#FDE9A8" style="fill:rgb(253, 233, 168);animation-play-state:paused" ></line>
<line y2="63.58" x2="51.19" y1="64.89" x1="44.61" stroke-miterlimit="10" stroke-linecap="round" stroke-width="3.5" stroke="#000000" fill="#FDE9A8" style="fill:rgb(253, 233, 168);animation-play-state:paused" ></line></g>
<g style="animation-play-state:paused" ><path d="M50.29,20.35c1.61-0.67,4.17-13.86,3.25-14.51c4.65,3.11,6.25,8.39,6.27,13.4C57.18,18.85,53.95,19.29,50.29,20.35z" stroke-miterlimit="10" stroke-linejoin="round" stroke-linecap="round" stroke-width="3.5" stroke="#000000" fill="#C33837" style="fill:rgb(195, 56, 55);animation-play-state:paused" ></path>
<path d="M70.35,33.75c0.29-1.33,11.21-9.16,12.17-8.55c-4.65-3.11-10.14-2.56-14.78-0.66C69.1,26.82,69.93,29.96,70.35,33.75z" stroke-miterlimit="10" stroke-linejoin="round" stroke-linecap="round" stroke-width="3.5" stroke="#000000" fill="#C33837" style="fill:rgb(195, 56, 55);animation-play-state:paused" ></path>
<path d="M56.49,48.56l-14.97-10c-2.07-1.38-2.62-4.18-1.24-6.24l5-7.48c4.14-6.2,12.53-7.87,18.73-3.72l0,0c6.2,4.14,7.87,12.53,3.72,18.73 l-5,7.48C61.35,49.39,58.56,49.94,56.49,48.56z" stroke-miterlimit="10" stroke-linejoin="round" stroke-linecap="round" stroke-width="3.5" stroke="#000000" fill="#F2F2F3" style="fill:rgb(242, 242, 243);animation-play-state:paused" ></path>
<line y2="28.73" x2="52.91" y1="26.23" x1="54.57" stroke-miterlimit="10" stroke-linejoin="round" stroke-linecap="round" stroke-width="3.5" stroke="#000000" fill="none" style="animation-play-state:paused" ></line>
<line y2="34.28" x2="61.22" y1="31.79" x1="62.89" stroke-miterlimit="10" stroke-linejoin="round" stroke-linecap="round" stroke-width="3.5" stroke="#000000" fill="none" style="animation-play-state:paused" ></line>
<path d="M47.57,32.09c2.84,4.83,7.03,7.63,12.58,8.41" stroke-miterlimit="10" stroke-linejoin="round" stroke-linecap="round" stroke-width="3.5" stroke="#000000" fill="none" style="animation-play-state:paused" ></path>
<path d="M47.42,45.94L47.42,45.94c-1.61-1.07-2.04-3.25-0.97-4.85l3.53-5.29c1.4,2.1,3.34,3.4,5.82,3.89l-3.53,5.29 C51.2,46.58,49.03,47.01,47.42,45.94z" stroke-miterlimit="10" stroke-linejoin="round" stroke-linecap="round" stroke-width="3.5" stroke="#000000" fill="#F47E5F" style="fill:rgb(244, 126, 95);animation-play-state:paused" ></path></g>
<g style="animation-play-state:paused" ><polygon points="35.48,62.16 25.48,49.93 17.48,49.93 27.48,62.16" stroke-miterlimit="10" stroke-linejoin="round" stroke-linecap="round" stroke-width="3.5" stroke="#000000" fill="#F47E5F" style="fill:rgb(244, 126, 95);animation-play-state:paused" ></polygon>
<polygon points="58.98,62.16 68.98,49.93 76.98,49.93 66.98,62.16" stroke-miterlimit="10" stroke-linejoin="round" stroke-linecap="round" stroke-width="3.5" stroke="#000000" fill="#F47E5F" style="fill:rgb(244, 126, 95);animation-play-state:paused" ></polygon>
<rect height="32" width="40" stroke-miterlimit="10" stroke-linejoin="round" stroke-linecap="round" stroke-width="3.5" stroke="#000000" fill="#E15C64" y="62.16" x="27.48" style="fill:rgb(225, 92, 100);animation-play-state:paused" ></rect>
<path d="M48.51,70.34l1.82,3.68c0.17,0.34,0.49,0.57,0.86,0.63l4.06,0.59c0.94,0.14,1.32,1.29,0.64,1.96l-2.94,2.86 c-0.27,0.26-0.39,0.64-0.33,1.01l0.69,4.04c0.16,0.94-0.82,1.65-1.66,1.21l-3.63-1.91c-0.33-0.18-0.73-0.18-1.07,0l-3.63,1.91 c-0.84,0.44-1.82-0.27-1.66-1.21l0.69-4.04c0.06-0.37-0.06-0.75-0.33-1.01l-2.94-2.86c-0.68-0.66-0.31-1.82,0.64-1.96l4.06-0.59 c0.37-0.05,0.7-0.29,0.86-0.63l1.82-3.68C46.88,69.49,48.09,69.49,48.51,70.34z" stroke-miterlimit="10" stroke-linejoin="round" stroke-linecap="round" stroke-width="3.5" stroke="#000000" fill="#F5E169" style="fill:rgb(245, 225, 105);animation-play-state:paused" ></path></g>
<metadata xmlns:d="https://loading.io/stock/" style="animation-play-state:paused" ><d:name style="animation-play-state:paused" >toy</d:name>


<d:tags style="animation-play-state:paused" >toy,scary box,clown,halloween,surprise,joke</d:tags>


<d:license style="animation-play-state:paused" >by</d:license>


<d:slug style="animation-play-state:paused" >8s1xbc</d:slug></metadata></g><!-- generated by https://loading.io/ --></svg>