<?xml version="1.0" encoding="utf-8"?><svg xml:space="preserve" viewBox="0 0 100 100" y="0" x="0" xmlns="http://www.w3.org/2000/svg" id="Layer_1" version="1.1" width="200px" height="200px" xmlns:xlink="http://www.w3.org/1999/xlink" style="width:100%;height:100%;background-size:initial;background-repeat-y:initial;background-repeat-x:initial;background-position-y:initial;background-position-x:initial;background-origin:initial;background-color:initial;background-clip:initial;background-attachment:initial;animation-play-state:paused" ><g class="ldl-scale" style="transform-origin:50% 50%;transform:rotate(0deg) scale(0.8, 0.8);animation-play-state:paused" ><path fill="#323232" d="M25.93 50c0-.53.213-1.061.638-1.451L52.41 15.388V9.472c0-1.713-2.036-2.608-3.298-1.451L15.235 48.549c-.425.39-.638.92-.638 1.451 0 .53.213 1.061.638 1.451l33.877 40.528c1.262 1.157 3.298.262 3.298-1.451v-5.916L26.568 51.451A1.963 1.963 0 0 1 25.93 50z" id="XMLID_882_" style="fill:rgb(255, 255, 255);animation-play-state:paused" ></path>
<path fill="#cccccb" d="M58.923 50c0-.53.213-1.061.638-1.451l25.842-33.161V9.472c0-1.713-2.036-2.608-3.298-1.451L48.228 48.549c-.425.39-.638.92-.638 1.451 0 .53.213 1.061.638 1.451l33.877 40.528c1.262 1.157 3.298.262 3.298-1.451v-5.916L59.561 51.451A1.963 1.963 0 0 1 58.923 50z" id="XMLID_881_" style="fill:rgb(255, 255, 255);animation-play-state:paused" ></path>
<metadata xmlns:d="https://loading.io/stock/" style="animation-play-state:paused" ><d:name style="animation-play-state:paused" >left</d:name>


<d:tags style="animation-play-state:paused" >west,back,undo,previous,direction,way,turn,dart,chevron,left,arrow</d:tags>


<d:license style="animation-play-state:paused" >by</d:license>


<d:slug style="animation-play-state:paused" >z1sl0t</d:slug></metadata></g><!-- generated by https://loading.io/ --></svg>