<?xml version="1.0" encoding="utf-8"?><svg xml:space="preserve" viewBox="0 0 100 100" y="0" x="0" xmlns="http://www.w3.org/2000/svg" id="圖層_1" version="1.1" width="200px" height="200px" xmlns:xlink="http://www.w3.org/1999/xlink" style="width:100%;height:100%;background-size:initial;background-repeat-y:initial;background-repeat-x:initial;background-position-y:initial;background-position-x:initial;background-origin:initial;background-color:initial;background-clip:initial;background-attachment:initial;animation-play-state:paused" ><g class="ldl-scale" style="transform-origin:50% 50%;transform:rotate(0deg) scale(0.8, 0.8);animation-play-state:paused" ><g style="animation-play-state:paused" ><path fill="#666" d="M84.883 7.521l.147-.01a.186.186 0 0 0-.147.01z" style="fill:rgb(102, 102, 102);animation-play-state:paused" ></path>
<path fill="#666" d="M61.887 32.874c4.976-.454 9.923-.07 14.58 1.144 3.336-4.435 5.347-9.18 5.986-13.51-4.725.636-9.618 2.114-14.368 4.488a52.964 52.964 0 0 1 14.599-7.525c.333-5.907 1.517-9.65 2.198-9.95-.835.062-5.487.471-11.511 2.216-6.659 1.929-14.976 5.49-21.611 12.018S41.43 36.541 39.392 43.167c-2.037 6.626-2.416 11.621-2.416 11.621s5-.297 11.658-2.227c6.659-1.929 14.976-5.49 21.611-12.018a40.282 40.282 0 0 0 3.629-3.441c-3.528-2.044-7.568-3.506-11.987-4.228z" style="fill:rgb(102, 102, 102);animation-play-state:paused" ></path></g>
<path fill="#e0e0e0" d="M29.621 75.104c.829-5.939 2.436-11.79 4.869-17.269 2.416-5.484 5.666-10.577 9.407-15.159 7.422-9.206 16.091-17.181 24.875-24.888a.608.608 0 0 1 .819.901c-8.49 7.999-16.805 16.232-23.744 25.501-3.485 4.595-6.393 9.554-8.506 14.848-2.123 5.285-3.443 10.862-4.028 16.52a1.861 1.861 0 1 1-3.692-.454z" style="fill:rgb(224, 224, 224);animation-play-state:paused" ></path>
<path fill="#333" d="M47.312 71.035H18.61a3.64 3.64 0 0 1-3.64-3.64v-.958a3.64 3.64 0 0 1 3.64-3.64h28.702a3.64 3.64 0 0 1 3.64 3.64v.958a3.64 3.64 0 0 1-3.64 3.64z" style="fill:rgb(51, 51, 51);animation-play-state:paused" ></path>
<path fill="#333" d="M45.972 71.035H19.95l-4.512 13.399c-1.334 3.963 1.613 8.066 5.794 8.066H44.69c4.181 0 7.129-4.103 5.794-8.066l-4.512-13.399z" style="fill:rgb(51, 51, 51);animation-play-state:paused" ></path>
<metadata xmlns:d="https://loading.io/stock/" style="animation-play-state:paused" ><d:name style="animation-play-state:paused" >quill</d:name>
<d:tags style="animation-play-state:paused" >feather,ink,bird,pen,write,sign,quill,business</d:tags>
<d:license style="animation-play-state:paused" >pro</d:license>
<d:slug style="animation-play-state:paused" >kgj03f</d:slug></metadata></g><!-- generated by https://loading.io/ --></svg>