<?xml version="1.0" encoding="utf-8"?><svg xml:space="preserve" viewBox="0 0 100 100" y="0px" x="0px" xmlns:xlink="http://www.w3.org/1999/xlink" xmlns="http://www.w3.org/2000/svg" id="Layer_1" version="1.1" width="200px" height="200px" style="width:100%;height:100%;background-size:initial;background-repeat-y:initial;background-repeat-x:initial;background-position-y:initial;background-position-x:initial;background-origin:initial;background-color:initial;background-clip:initial;background-attachment:initial;animation-play-state:paused" ><g class="ldl-scale" style="transform-origin:50% 50%;transform:rotate(0deg) scale(0.8, 0.8);animation-play-state:paused" ><path d="M82.15,35.71c0.13-0.96,0.2-1.93,0.2-2.93c0-12.38-10.03-22.41-22.41-22.41c-9.46,0-17.55,5.87-20.84,14.17 c-1.88-0.94-3.99-1.48-6.23-1.48c-7.15,0-13.04,5.38-13.85,12.31C12.41,37.03,7.5,42.99,7.5,50.12c0,8.27,6.59,14.98,14.8,15.2v0.02 h54.97c8.41,0,15.22-6.82,15.22-15.22C92.5,43.42,88.17,37.75,82.15,35.71z" stroke-miterlimit="10" stroke-linejoin="round" stroke-linecap="round" stroke-width="3.5" stroke="#323334" fill="#F2F2F3" style="stroke:rgb(255, 255, 255);fill:rgb(59, 184, 193);animation-play-state:paused" ></path>
<polygon points="42.95,43.27 61.31,43.27 54.76,59.23 69.65,59.23 49.08,89.63 49.5,70.62 33.54,70.62" stroke-miterlimit="10" stroke-linejoin="round" stroke-linecap="round" stroke-width="3.5" stroke="#323334" fill="#F3E6C8" style="stroke:rgb(255, 255, 255);fill:rgb(0, 96, 212);animation-play-state:paused" ></polygon>
<metadata xmlns:d="https://loading.io/stock/" style="animation-play-state:paused" ><d:name style="animation-play-state:paused" >weather</d:name>


<d:tags style="animation-play-state:paused" >weather,nature,sky,thunder,froecast,lightning,storm</d:tags>


<d:license style="animation-play-state:paused" >by</d:license>


<d:slug style="animation-play-state:paused" >q15pjm</d:slug></metadata></g><!-- generated by https://loading.io/ --></svg>