<?xml version="1.0" encoding="utf-8"?><svg xml:space="preserve" viewBox="0 0 100 100" y="0" x="0" xmlns="http://www.w3.org/2000/svg" id="圖層_1" version="1.1" width="200px" height="200px" xmlns:xlink="http://www.w3.org/1999/xlink" style="width:100%;height:100%;background-size:initial;background-repeat-y:initial;background-repeat-x:initial;background-position-y:initial;background-position-x:initial;background-origin:initial;background-color:initial;background-clip:initial;background-attachment:initial;animation-play-state:paused" ><g class="ldl-scale" style="transform-origin:50% 50%;transform:rotate(0deg) scale(0.8, 0.8);animation-play-state:paused" ><path fill="#f8b26a" d="M69.932 41.35H42.869L53.268 9.754a3.62 3.62 0 0 0-1.933-4.425 3.623 3.623 0 0 0-4.613 1.431L22.974 46.357l-5.188 8.439c-.998 1.624.17 3.714 2.076 3.714h11.041l27.494-.001-10.105 31.658a3.622 3.622 0 0 0 2 4.42l.252.11a3.622 3.622 0 0 0 4.602-1.535l22.522-39.796 4.596-8.192c.911-1.625-.263-3.824-2.126-3.823H69.932z" style="fill:rgb(0, 96, 212);animation-play-state:paused" ></path>
<metadata xmlns:d="https://loading.io/stock/" style="animation-play-state:paused" ><d:name style="animation-play-state:paused" >flashlight</d:name>
<d:tags style="animation-play-state:paused" >speedlight,lightning,lamp,exposure,illuminate,flashlight,camera</d:tags>
<d:license style="animation-play-state:paused" >by</d:license>
<d:slug style="animation-play-state:paused" >qt6ehx</d:slug></metadata></g><!-- generated by https://loading.io/ --></svg>