<?xml version="1.0" encoding="utf-8"?><svg xml:space="preserve" viewBox="0 0 100 100" y="0" x="0" xmlns="http://www.w3.org/2000/svg" id="圖層_1" version="1.1" width="500px" height="500px" xmlns:xlink="http://www.w3.org/1999/xlink" style="width:100%;height:100%;background-size:initial;background-repeat-y:initial;background-repeat-x:initial;background-position-y:initial;background-position-x:initial;background-origin:initial;background-color:initial;background-clip:initial;background-attachment:initial;animation-play-state:paused" ><g class="ldl-scale" style="transform-origin:50% 50%;transform:rotate(0deg) scale(0.8, 0.8);animation-play-state:paused" ><path stroke-miterlimit="10" stroke-linejoin="round" stroke-width="4" stroke="#333" fill="none" d="M70.066 69.536h5.153a3.846 3.846 0 0 0 3.846-3.846V48.556l5.827 4.633L90 46.765 76.062 35.684V18.292a2.274 2.274 0 0 0-2.274-2.274h-6.986a2.274 2.274 0 0 0-2.274 2.274v8.221L50 14.964 10 46.765l5.108 6.424 5.827-4.633v17.135a3.846 3.846 0 0 0 3.846 3.846h5.292" style="stroke:rgb(255, 255, 255);animation-play-state:paused" ></path>
<path d="M26.378 61.415L50 85.036l23.622-23.621-4.725-4.725-15.556 15.557V35.036h-6.682v37.211L31.103 56.69z" fill="#323232" id="XMLID_1_" style="fill:rgb(255, 255, 255);animation-play-state:paused" ></path>
<metadata xmlns:d="https://loading.io/stock/" style="animation-play-state:paused" ><d:name style="animation-play-state:paused" >house</d:name>


<d:tags style="animation-play-state:paused" >house,home,landing page,building,construction,download,leave,part,logout,exit</d:tags>


<d:license style="animation-play-state:paused" >by</d:license>


<d:slug style="animation-play-state:paused" >qzr9ij</d:slug></metadata></g><!-- generated by https://loading.io/ --></svg>