<?xml version="1.0" encoding="utf-8"?><svg xml:space="preserve" viewBox="0 0 100 100" y="0" x="0" xmlns="http://www.w3.org/2000/svg" id="圖層_1" version="1.1" width="200px" height="200px" xmlns:xlink="http://www.w3.org/1999/xlink" style="width:100%;height:100%;background-size:initial;background-repeat-y:initial;background-repeat-x:initial;background-position-y:initial;background-position-x:initial;background-origin:initial;background-color:initial;background-clip:initial;background-attachment:initial;animation-play-state:paused" ><g class="ldl-scale" style="transform-origin:50% 50%;transform:rotate(0deg) scale(0.8, 0.8);animation-play-state:paused" ><path stroke-miterlimit="10" stroke-width="3.5" stroke="#333" fill="#e15b64" d="M80.6 22.7c-20.4-2.9-40.8-2.9-61.1 0-4.4.6-7.8 4-8.6 8.4C9.8 37.4 9.2 43.7 9.2 50c0 6.3.5 12.6 1.6 18.9.7 4.3 4.2 7.8 8.6 8.4 20.4 2.9 40.8 2.9 61.1 0 4.4-.6 7.8-4 8.6-8.4 1.1-6.3 1.6-12.6 1.6-18.9 0-6.3-.5-12.6-1.6-18.9-.7-4.4-4.2-7.8-8.5-8.4z" style="stroke:rgb(51, 51, 51);fill:rgb(225, 91, 100);animation-play-state:paused" ></path>
<path stroke-miterlimit="10" stroke-width="3.5" stroke="#000" opacity=".2" d="M89.1 31.1c-.7-4.3-4.2-7.8-8.6-8.4-5.4-.8-10.8-1.3-16.1-1.7 5.7 3.9 9.6 10.2 10.2 17.4.3 3.9.5 7.7.5 11.6 0 3.9-.2 7.7-.5 11.6-.6 7.2-4.5 13.5-10.2 17.4 5.4-.4 10.8-.9 16.1-1.7 4.4-.6 7.8-4 8.6-8.4 1.1-6.3 1.6-12.6 1.6-18.9s-.5-12.6-1.6-18.9z" style="animation-play-state:paused" ></path>
<path stroke-miterlimit="10" stroke-width="3.5" stroke-linecap="round" stroke="#fff" fill="#e15b64" d="M17.3 48v2" style="stroke:rgb(255, 255, 255);fill:rgb(225, 91, 100);animation-play-state:paused" ></path>
<path stroke-miterlimit="10" stroke-width="3.5" stroke-linecap="round" stroke="#fff" fill="#e15b64" d="M18.9 33.1c-.5 2.7-.8 5.5-1.1 8.2" style="stroke:rgb(255, 255, 255);fill:rgb(225, 91, 100);animation-play-state:paused" ></path>
<path d="M42 63.4V36.6L64 50z" stroke-miterlimit="10" stroke-width="3.5" stroke="#333" fill="#fff" style="stroke:rgb(51, 51, 51);fill:rgb(255, 255, 255);animation-play-state:paused" ></path>
<metadata xmlns:d="https://loading.io/stock/" style="animation-play-state:paused" ><d:name style="animation-play-state:paused" >video</d:name>
<d:tags style="animation-play-state:paused" >video,television,screen,movie,clip,youtube,tudou,youku,monitor</d:tags>
<d:license style="animation-play-state:paused" >by</d:license>
<d:slug style="animation-play-state:paused" >umwm5d</d:slug></metadata></g><!-- generated by https://loading.io/ --></svg>