<?xml version="1.0" encoding="utf-8"?><svg xml:space="preserve" viewBox="0 0 100 100" y="0" x="0" xmlns="http://www.w3.org/2000/svg" id="圖層_1" version="1.1" width="200px" height="200px" xmlns:xlink="http://www.w3.org/1999/xlink" style="width:100%;height:100%;background-size:initial;background-repeat-y:initial;background-repeat-x:initial;background-position-y:initial;background-position-x:initial;background-origin:initial;background-color:initial;background-clip:initial;background-attachment:initial;animation-play-state:paused" ><g class="ldl-scale" style="transform-origin:50% 50%;transform:rotate(0deg) scale(0.8, 0.8);animation-play-state:paused" ><path stroke-miterlimit="10" stroke-width="4" stroke="#333" fill="#666" d="M7.5 77.576a8.302 8.302 0 0 0 8.302 8.302h68.395a8.302 8.302 0 0 0 8.302-8.302V43.564h-85v34.012z" style="stroke:rgb(51, 51, 51);fill:rgb(102, 102, 102);animation-play-state:paused" ></path>
<path stroke-miterlimit="10" stroke-width="4" stroke="#333" fill="#66503a" d="M84.198 26.576H72.599l-3.403-8.767a5.43 5.43 0 0 0-5.142-3.687H49.946a5.43 5.43 0 0 0-5.142 3.687l-3.403 8.767h-9.413V24.25a3.25 3.25 0 0 0-3.25-3.25h-9.25a3.25 3.25 0 0 0-3.25 3.25v2.326h-.435a8.302 8.302 0 0 0-8.302 8.302v8.686h85v-8.686a8.304 8.304 0 0 0-8.303-8.302z" style="stroke:rgb(51, 51, 51);fill:rgb(102, 80, 58);animation-play-state:paused" ></path>
<circle stroke-miterlimit="10" stroke-width="4" stroke="#333" fill="#a0c8d7" r="18.977" cy="56.227" cx="57" style="stroke:rgb(51, 51, 51);fill:rgb(160, 200, 215);animation-play-state:paused" ></circle>
<path stroke-miterlimit="10" stroke-linecap="round" stroke-width="4" stroke="#333" fill="#fff" d="M44.93 51.498c2.392-4.591 6.001-7.281 10.246-7.736" style="stroke:rgb(51, 51, 51);fill:rgb(255, 255, 255);animation-play-state:paused" ></path>
<path d="M19.388 34.942h8.622" stroke-miterlimit="10" stroke-linecap="round" stroke-width="6" stroke="#fff" fill="none" style="stroke:rgb(255, 255, 255);animation-play-state:paused" ></path>
<path stroke-miterlimit="10" stroke-linejoin="round" stroke-linecap="round" stroke-width="4" stroke="#333" fill="none" d="M23.699 62.315v-9.739 9.739z" style="stroke:rgb(51, 51, 51);animation-play-state:paused" ></path>
<metadata xmlns:d="https://loading.io/stock/" style="animation-play-state:paused" ><d:name style="animation-play-state:paused" >camera</d:name>
<d:tags style="animation-play-state:paused" >dslr,compact,lens,photo,film,photographer,photography,camera,camera</d:tags>
<d:license style="animation-play-state:paused" >by</d:license>
<d:slug style="animation-play-state:paused" >vv2yte</d:slug></metadata></g><!-- generated by https://loading.io/ --></svg>