<?xml version="1.0" encoding="utf-8"?><svg xml:space="preserve" viewBox="0 0 100 100" y="0" x="0" xmlns="http://www.w3.org/2000/svg" id="圖層_1" version="1.1" width="200px" height="200px" xmlns:xlink="http://www.w3.org/1999/xlink" style="width:100%;height:100%;background-size:initial;background-repeat-y:initial;background-repeat-x:initial;background-position-y:initial;background-position-x:initial;background-origin:initial;background-color:initial;background-clip:initial;background-attachment:initial;animation-play-state:paused" ><g class="ldl-scale" style="transform-origin:50% 50%;transform:rotate(0deg) scale(0.8, 0.8);animation-play-state:paused" ><path fill="#ccc" d="M82.502 52.803l-8.977-5.183-9.258 11.378a1.909 1.909 0 0 0-.368 1.63c.731 3.238.681 8.186-.226 12.885l.277.102 5.493-9.514a2.088 2.088 0 0 1 2.057-3.515 2.088 2.088 0 0 1-1.231 3.992l-5.493 9.514.227.189c3.616-3.134 7.876-5.651 11.046-6.638a1.906 1.906 0 0 0 1.227-1.131l5.226-13.709z" style="fill:rgb(204, 204, 204);animation-play-state:paused" ></path>
<path stroke-miterlimit="10" stroke-linejoin="round" stroke-linecap="round" stroke-width="3.606" stroke="#333" fill="none" d="M13.254 68.37c.112-1.661-1.347-3.003-3.051-2.787-1.177.149-2.148.739-2.989 1.546-1.343 1.29-2.07 3.2-2.202 5.034-.028.39-.024.811.197 1.133.34.495 1.057.559 1.639.414.739-.184 1.391-.614 1.996-1.077 1.724-1.318 3.406-2.999 4.267-5.007-.372.866-1.056 1.621-1.407 2.54-.382 1-.474 2.433.565 3.055 1.193.714 2.691.017 3.763-.605C23.181 68.472 29.24 62.479 33.5 55.401c1.096-1.821 3.128-5.909.106-7.135-1.051-.426-2.13.019-3 .638-1.979 1.406-3.37 3.658-4.578 5.72-1.724 2.945-2.789 6.25-3.462 9.582-.668 3.309-.58 7.558 2.438 9.069 2.862 1.432 6.249-.333 8.622-1.956 1.586-1.084 3.203-2.511 4.548-3.887 1.049-1.074 2.277-2.523 2.013-4.157-.18-1.116-1.293-1.95-2.423-1.974-1.13-.024-2.205.659-2.824 1.605-.619.946-.825 2.117-.762 3.246.106 1.924.798 3.958 2.11 5.397 1.67 1.834 3.895 1.951 6.097 1.061a30.51 30.51 0 0 0 11.257-7.908c-1.324 1.453-2.458 3.07-3.48 4.749-.387.635-.762 1.291-.939 2.013-.162.662-.066 1.507.545 1.808.706.348 1.484-.268 2.053-.813a26.714 26.714 0 0 1 5.091-3.819" style="stroke:rgb(51, 51, 51);animation-play-state:paused" ></path>
<g style="animation-play-state:paused" ><g style="animation-play-state:paused" ><path fill="#333" d="M56.333 57.491l-.307-.184c-.81-.486-2.016-.207-2.467.647-.461.873-.217 1.949.647 2.467l.307.184c.81.486 2.016.207 2.467-.647.461-.873.218-1.949-.647-2.467z" style="fill:rgb(51, 51, 51);animation-play-state:paused" ></path></g></g>
<path fill="#66503a" d="M95 28.846l-12.818-3.127-9.74 18.773a2.27 2.27 0 0 0 .88 3.011l9.384 5.418a2.27 2.27 0 0 0 3.048-.744L95 37.706v-8.86z" style="fill:rgb(102, 80, 58);animation-play-state:paused" ></path>
<metadata xmlns:d="https://loading.io/stock/" style="animation-play-state:paused" ><d:name style="animation-play-state:paused" >sign</d:name>
<d:tags style="animation-play-state:paused" >sign,signature,handwrite,pen,transcript,cursive,stationery</d:tags>
<d:license style="animation-play-state:paused" >by</d:license>
<d:slug style="animation-play-state:paused" >r3p2fq</d:slug></metadata></g><!-- generated by https://loading.io/ --></svg>