<?xml version="1.0" encoding="utf-8"?><svg xml:space="preserve" viewBox="0 0 100 100" y="0" x="0" xmlns="http://www.w3.org/2000/svg" id="圖層_1" version="1.1" width="200px" height="200px" xmlns:xlink="http://www.w3.org/1999/xlink" style="width:100%;height:100%;background-size:initial;background-repeat-y:initial;background-repeat-x:initial;background-position-y:initial;background-position-x:initial;background-origin:initial;background-color:initial;background-clip:initial;background-attachment:initial;animation-play-state:paused" ><g class="ldl-scale" style="transform-origin:50% 50%;transform:rotate(0deg) scale(0.8, 0.8);animation-play-state:paused" ><path stroke-miterlimit="10" stroke-width="4" stroke="#333" fill="#f5e6c8" d="M43.5 14.9c-19 0-34.3 5.9-34.3 28.4 0 9.4 2.7 15.9 7.2 20.3-.5 3.4-2 7.9-4.5 13.9 1.8 1.6 8.3-2.9 13.9-8.3 5.2 1.8 11.3 2.5 17.7 2.5 19 0 34.3-5.9 34.3-28.4.1-22.5-15.3-28.4-34.3-28.4z" style="stroke:rgb(51, 51, 51);fill:rgb(245, 230, 200);animation-play-state:paused" ></path>
<path stroke-miterlimit="10" stroke-width="4" stroke="#333" fill="#f5e6c8" d="M61.1 30.6c16.4 0 29.7 5.1 29.7 24.6 0 8.1-2.3 13.8-6.2 17.6.5 3 1.7 6.9 3.9 12-1.5 1.4-7.2-2.5-12.1-7.2-4.5 1.6-9.7 2.2-15.3 2.2-16.4 0-29.7-5.1-29.7-24.6s13.3-24.6 29.7-24.6z" style="stroke:rgb(51, 51, 51);fill:rgb(245, 230, 200);animation-play-state:paused" ></path>
<g style="animation-play-state:paused" ><circle fill="#666" r="4.3" cy="56.3" cx="46.4" style="fill:rgb(102, 102, 102);animation-play-state:paused" ></circle>
<circle fill="#666" r="4.3" cy="56.3" cx="61.1" style="fill:rgb(102, 102, 102);animation-play-state:paused" ></circle>
<circle fill="#666" r="4.3" cy="56.3" cx="75.8" style="fill:rgb(102, 102, 102);animation-play-state:paused" ></circle></g>
<metadata xmlns:d="https://loading.io/stock/" style="animation-play-state:paused" ><d:name style="animation-play-state:paused" >discussion</d:name>
<d:tags style="animation-play-state:paused" >conversation,communication,colloquy,post,forum,discussion,web application</d:tags>
<d:license style="animation-play-state:paused" >pro</d:license>
<d:slug style="animation-play-state:paused" >qr9c09</d:slug></metadata></g><!-- generated by https://loading.io/ --></svg>