<?xml version="1.0" encoding="utf-8"?><svg xml:space="preserve" viewBox="0 0 100 100" y="0" x="0" xmlns="http://www.w3.org/2000/svg" id="Layer_1" version="1.1" width="200px" height="200px" xmlns:xlink="http://www.w3.org/1999/xlink" style="width:100%;height:100%;background-size:initial;background-repeat-y:initial;background-repeat-x:initial;background-position-y:initial;background-position-x:initial;background-origin:initial;background-color:initial;background-clip:initial;background-attachment:initial;animation-play-state:paused" ><g class="ldl-scale" style="transform-origin:50% 50%;transform:rotate(0deg) scale(0.8, 0.8);animation-play-state:paused" ><path fill="#323232" d="M74.07 50c0 .53-.213 1.061-.638 1.451L47.59 84.612v5.916c0 1.713 2.036 2.608 3.298 1.451l33.877-40.528c.425-.39.638-.92.638-1.451 0-.53-.213-1.061-.638-1.451L50.888 8.021c-1.262-1.157-3.298-.262-3.298 1.451v5.916l25.842 33.161c.425.39.638.921.638 1.451z" id="XMLID_854_" style="fill:rgb(255, 255, 255);animation-play-state:paused" ></path>
<path fill="#cccccb" d="M41.077 50c0 .53-.213 1.061-.638 1.451L14.597 84.612v5.916c0 1.713 2.036 2.608 3.298 1.451l33.877-40.528c.425-.39.638-.92.638-1.451 0-.53-.213-1.061-.638-1.451L17.895 8.021c-1.262-1.157-3.298-.262-3.298 1.451v5.916l25.842 33.161c.425.39.638.921.638 1.451z" id="XMLID_853_" style="fill:rgb(255, 255, 255);animation-play-state:paused" ></path>
<metadata xmlns:d="https://loading.io/stock/" style="animation-play-state:paused" ><d:name style="animation-play-state:paused" >right</d:name>


<d:tags style="animation-play-state:paused" >east,foward,redo,next,direction,way,turn,chevron,dart,right,arrow</d:tags>


<d:license style="animation-play-state:paused" >by</d:license>


<d:slug style="animation-play-state:paused" >3yz1dd</d:slug></metadata></g><!-- generated by https://loading.io/ --></svg>