<?xml version="1.0" encoding="utf-8"?><svg xml:space="preserve" viewBox="0 0 100 100" y="0" x="0" xmlns="http://www.w3.org/2000/svg" id="圖層_1" version="1.1" width="200px" height="200px" xmlns:xlink="http://www.w3.org/1999/xlink" style="width:100%;height:100%;background-size:initial;background-repeat-y:initial;background-repeat-x:initial;background-position-y:initial;background-position-x:initial;background-origin:initial;background-color:initial;background-clip:initial;background-attachment:initial;animation-play-state:paused" ><g class="ldl-scale" style="transform-origin:50% 50%;transform:rotate(0deg) scale(0.8, 0.8);animation-play-state:paused" ><path fill="#77a4bd" d="M58.941 36.021c-3.936-6.817-12.684-9.161-19.501-5.225s-9.161 12.684-5.226 19.501c3.709 6.424 11.69 8.874 18.303 5.842l1.583 2.742a3.229 3.229 0 0 0-.165 3.484l5.141 8.905a3.232 3.232 0 0 0 5.597-3.231l-5.141-8.905a3.23 3.23 0 0 0-3.1-1.599l-1.583-2.742c5.932-4.211 7.801-12.348 4.092-18.772z" style="fill:rgb(255, 255, 255);animation-play-state:paused" ></path>
<circle stroke-miterlimit="10" stroke-width="7.6" stroke="#333" fill="none" r="38" cy="50" cx="50" style="stroke:rgb(255, 255, 255);animation-play-state:paused" ></circle>
<metadata xmlns:d="https://loading.io/stock/" style="animation-play-state:paused" ><d:name style="animation-play-state:paused" >search</d:name>
<d:tags style="animation-play-state:paused" >search,find,lookup,zoom,scale,enlarge,magnify</d:tags>
<d:license style="animation-play-state:paused" >by</d:license>
<d:slug style="animation-play-state:paused" >a1brsw</d:slug></metadata></g><!-- generated by https://loading.io/ --></svg>