<?xml version="1.0" encoding="utf-8"?><svg xml:space="preserve" viewBox="0 0 100 100" y="0" x="0" xmlns="http://www.w3.org/2000/svg" id="圖層_1" version="1.1" width="200px" height="200px" xmlns:xlink="http://www.w3.org/1999/xlink" style="width:100%;height:100%;background-size:initial;background-repeat-y:initial;background-repeat-x:initial;background-position-y:initial;background-position-x:initial;background-origin:initial;background-color:initial;background-clip:initial;background-attachment:initial;animation-play-state:paused" ><g class="ldl-scale" style="transform-origin:50% 50%;transform:rotate(0deg) scale(0.8, 0.8);animation-play-state:paused" ><path d="M92.5 42.8L51.8 12.4v18.1H38.7l-3.8.2c-1.8.1-3.2.2-5.1.6-1.9.3-3.7.7-5.5 1.5-1.8.7-3.4 1.8-4.8 2.9-3 2.3-5.4 5.2-7.2 8.2-.9 1.5-1.6 3.1-2.3 4.7-.7 1.6-1.2 3.1-1.5 4.7-.8 3.1-.8 6.3-.9 9.1 0 .7-.1 1.4-.1 2.1 0 .7-.1 1.4 0 2v4c.2 1.5.3 2.9.5 4.3l.4 4.3.8 8.5c1-5.8 2.1-11.6 3.1-17.5v.5c1.4-4.4 3.8-7.9 6.6-10.6 1.4-1.3 2.9-2.4 4.6-3.2 1.6-.8 3.2-1.4 4.9-1.7.8-.1 1.1-.2 1.9-.3h21.5v18.4l40.7-30.4z" style="fill:rgb(255, 255, 255);animation-play-state:paused" ></path>
<metadata xmlns:d="https://loading.io/stock/" style="animation-play-state:paused" ><d:name style="animation-play-state:paused" >share</d:name>


<d:tags style="animation-play-state:paused" >redirect,arrow,turn,post,publish,share,web application</d:tags>


<d:license style="animation-play-state:paused" >by</d:license>


<d:slug style="animation-play-state:paused" >bll7n9</d:slug></metadata></g><!-- generated by https://loading.io/ --></svg>