<?xml version="1.0" encoding="utf-8"?><svg xml:space="preserve" viewBox="0 0 100 100" y="0" x="0" xmlns="http://www.w3.org/2000/svg" id="圖層_1" version="1.1" width="200px" height="200px" xmlns:xlink="http://www.w3.org/1999/xlink" style="width:100%;height:100%;background-size:initial;background-repeat-y:initial;background-repeat-x:initial;background-position-y:initial;background-position-x:initial;background-origin:initial;background-color:initial;background-clip:initial;background-attachment:initial;animation-play-state:paused" ><g class="ldl-scale" style="transform-origin:50% 50%;transform:rotate(0deg) scale(0.8, 0.8);animation-play-state:paused" ><g style="animation-play-state:paused" ><path fill="#666" d="M80.454 92.5H19.546a4.07 4.07 0 0 1-4.07-4.07V69.95a4.07 4.07 0 0 1 8.14 0v14.411h52.769V69.95a4.07 4.07 0 0 1 8.14 0v18.48a4.073 4.073 0 0 1-4.071 4.07z" style="fill:rgb(255, 255, 255);animation-play-state:paused" ></path></g>
<path fill="#333" d="M83.641 38.952L53.738 9.048a5.287 5.287 0 0 0-7.476 0L16.359 38.952a5.287 5.287 0 0 0 7.476 7.476l20.879-20.879v45.62a5.286 5.286 0 0 0 10.572 0v-45.62l20.879 20.879a5.287 5.287 0 0 0 7.476 0 5.285 5.285 0 0 0 0-7.476z" id="XMLID_6_" style="fill:rgb(255, 255, 255);animation-play-state:paused" ></path>
<metadata xmlns:d="https://loading.io/stock/" style="animation-play-state:paused" ><d:name style="animation-play-state:paused" >upload</d:name>


<d:tags style="animation-play-state:paused" >arrow,publish,public,post,share,sync,upload,form</d:tags>


<d:license style="animation-play-state:paused" >by</d:license>


<d:slug style="animation-play-state:paused" >fujjw4</d:slug></metadata></g><!-- generated by https://loading.io/ --></svg>