<?xml version="1.0" encoding="utf-8"?><svg xml:space="preserve" viewBox="0 0 100 100" y="0px" x="0px" xmlns:xlink="http://www.w3.org/1999/xlink" xmlns="http://www.w3.org/2000/svg" id="圖層_1" version="1.1" width="200px" height="200px" style="width:100%;height:100%;background-size:initial;background-repeat-y:initial;background-repeat-x:initial;background-position-y:initial;background-position-x:initial;background-origin:initial;background-color:initial;background-clip:initial;background-attachment:initial;animation-play-state:paused" ><g class="ldl-scale" style="transform-origin:50% 50%;transform:rotate(0deg) scale(0.8, 0.8);animation-play-state:paused" ><path d="M10,44.7l15.6-15.9c0.9-0.9,2.3,0.1,1.9,1.2L9,68.2L10,44.7z" stroke-miterlimit="10" stroke-linejoin="round" stroke-linecap="round" stroke-width="3.5" stroke="#333333" fill="#F5E169" style="stroke:rgb(51, 51, 51);fill:rgb(245, 225, 105);animation-play-state:paused" ></path>
<path d="M90,44.7L74.4,28.8c-0.9-0.9-2.3,0.1-1.9,1.2L91,68.2L90,44.7z" stroke-miterlimit="10" stroke-linejoin="round" stroke-linecap="round" stroke-width="3.5" stroke="#333333" fill="#F5E169" style="stroke:rgb(51, 51, 51);fill:rgb(245, 225, 105);animation-play-state:paused" ></path>
<g style="animation-play-state:paused" ><path d="M66.5,43.4H50H33.5H12.4 c-1.9,0-3.4,1.5-3.4,3.4v21.4c0,1.9,1.5,3.4,3.4,3.4h25.9c1.5,0,2.8-1,3.3-2.4l2.4-7.4c0.8-2.6,3.2-4.3,6-4.3h0 c2.7,0,5.1,1.8,6,4.3l2.4,7.4c0.5,1.4,1.8,2.4,3.3,2.4h25.9c1.9,0,3.4-1.5,3.4-3.4V46.8c0-1.9-1.5-3.4-3.4-3.4H66.5z" stroke-miterlimit="10" stroke-width="3.5" stroke="#333333" fill="#F5E169" style="stroke:rgb(51, 51, 51);fill:rgb(245, 225, 105);animation-play-state:paused" ></path>
<path d="M33.6,64.4H18.4c-1.1,0-2.1-0.9-2.1-2.1v-9.8 c0-1.1,0.9-2.1,2.1-2.1h18.4c1.4,0,2.4,1.3,1.9,2.7L35.6,63C35.3,63.9,34.5,64.4,33.6,64.4z" stroke-miterlimit="10" stroke-width="3.5" stroke="#333333" fill="#77A4BD" style="stroke:rgb(51, 51, 51);fill:rgb(119, 164, 189);animation-play-state:paused" ></path>
<path d="M66.4,64.4h15.2c1.1,0,2.1-0.9,2.1-2.1v-9.8 c0-1.1-0.9-2.1-2.1-2.1H63.2c-1.4,0-2.4,1.3-1.9,2.7l3.2,9.9C64.7,63.9,65.5,64.4,66.4,64.4z" stroke-miterlimit="10" stroke-width="3.5" stroke="#333333" fill="#C33837" style="stroke:rgb(51, 51, 51);fill:rgb(195, 56, 55);animation-play-state:paused" ></path></g>
<metadata xmlns:d="https://loading.io/stock/" style="animation-play-state:paused" ><d:name style="animation-play-state:paused" >3d glasses</d:name>


<d:tags style="animation-play-state:paused" >movie,glasses,stereo,vr,ar,virtual reality</d:tags>


<d:license style="animation-play-state:paused" >by</d:license>


<d:slug style="animation-play-state:paused" >v156tr</d:slug></metadata></g><!-- generated by https://loading.io/ --></svg>